<svg xmlns="http://www.w3.org/2000/svg" viewBox="0 0 1600 900" preserveAspectRatio="xMidYMid slice"><defs><radialGradient id="r1" cx="15%" cy="20%" r="60%"><stop offset="0" stop-color="#ff2d92" stop-opacity=".65"/><stop offset="1" stop-color="#ff2d92" stop-opacity="0"/></radialGradient><radialGradient id="r2" cx="85%" cy="25%" r="55%"><stop offset="0" stop-color="#ff9d00" stop-opacity=".6"/><stop offset="1" stop-color="#ff9d00" stop-opacity="0"/></radialGradient><radialGradient id="r3" cx="55%" cy="35%" r="55%"><stop offset="0" stop-color="#00b7ff" stop-opacity=".45"/><stop offset="1" stop-color="#00b7ff" stop-opacity="0"/></radialGradient><radialGradient id="r4" cx="40%" cy="80%" r="55%"><stop offset="0" stop-color="#8a2be2" stop-opacity=".5"/><stop offset="1" stop-color="#8a2be2" stop-opacity="0"/></radialGradient><filter id="blur"><feGaussianBlur stdDeviation="70"/></filter><filter id="grain"><feTurbulence type="fractalNoise" baseFrequency=".7" numOctaves="3" seed="7"/><feColorMatrix values="1 0 0 0 0 0 1 0 0 0 0 0 1 0 0 0 0 0 .12 0"/></filter></defs><rect width="1600" height="900" fill="#060912"/><rect width="1600" height="900" fill="url(#r1)"/><rect width="1600" height="900" fill="url(#r2)"/><rect width="1600" height="900" fill="url(#r3)"/><rect width="1600" height="900" fill="url(#r4)"/><g filter="url(#blur)" opacity=".7"><circle cx="120" cy="220" r="220" fill="#ff2d92"/><circle cx="360" cy="120" r="170" fill="#7c3aed"/><circle cx="1400" cy="180" r="220" fill="#ff8a00"/><circle cx="1100" cy="160" r="170" fill="#00c2ff"/><circle cx="700" cy="520" r="240" fill="#5b21b6"/><circle cx="1260" cy="690" r="220" fill="#ef4444"/></g><g opacity=".25"><circle cx="160" cy="110" r="6" fill="#fff"/><circle cx="230" cy="180" r="4" fill="#ffe600"/><circle cx="330" cy="90" r="5" fill="#00e5ff"/><circle cx="1210" cy="120" r="5" fill="#fff"/><circle cx="1320" cy="230" r="6" fill="#ff4d4d"/><circle cx="1460" cy="130" r="4" fill="#ffe600"/><circle cx="980" cy="760" r="5" fill="#ff66c4"/><circle cx="620" cy="730" r="4" fill="#00e5ff"/></g><rect width="1600" height="900" filter="url(#grain)" opacity=".2"/></svg>